<svg xmlns="http://www.w3.org/2000/svg" xmlns:xlink="http://www.w3.org/1999/xlink" viewBox="0 0 139.8 94.3" class="svg-inline--fa svg-logo-peugeot-new" xml:space="preserve"><g><g><g><path fill="#C1C1C1" d="M16.9,86v8.3h-1.5v-6.7l-4.6,5H9.1l-4.5-4.9v6.6H3.2V86h1.8l5.1,5.7l5.2-5.7H16.9z"></path><path fill="#C1C1C1" d="M20.2,92v-3.7c0-1.7,0.7-2.3,2.3-2.3h7c1.7,0,2.3,0.6,2.3,2.3V92c0,1.9-1,2.3-2.3,2.3h-7C21.2,94.3,20.2,93.9,20.2,92z M29.6,93c0.4,0,0.7-0.3,0.7-0.7v-4.2c0-0.4-0.2-0.7-0.7-0.7h-7.1c-0.6,0-0.8,0.4-0.8,0.7v4.2c0,0.5,0.3,0.7,0.8,0.7H29.6z"></path><path fill="#C1C1C1" d="M45,87.3h-4.8v7h-1.5v-7h-4.9V86H45V87.3z"></path><path fill="#C1C1C1" d="M47,92v-3.7c0-1.7,0.7-2.3,2.3-2.3h7c1.7,0,2.3,0.6,2.3,2.3V92c0,1.9-1,2.3-2.3,2.3h-7C47.9,94.3,47,93.9,47,92z M56.3,93c0.4,0,0.7-0.3,0.7-0.7v-4.2c0-0.4-0.2-0.7-0.7-0.7h-7.1c-0.6,0-0.8,0.4-0.8,0.7v4.2c0,0.5,0.3,0.7,0.8,0.7H56.3z"></path><path fill="#C1C1C1" d="M61.5,88.3c0-1.9,1.1-2.3,3.1-2.3H72v1.4h-8.3c-0.4,0-0.8,0.3-0.8,0.7v4.2c0,0.4,0.3,0.7,0.8,0.7h8.4v1.4h-7.6c-1.9,0-3.1-0.4-3.1-2.3V88.3z"></path><path fill="#C1C1C1" d="M84.8,86l-4.9,5.4v2.9h-1.5v-2.9L73.6,86h1.8l3.9,4.3L83,86H84.8z"></path><path fill="#C1C1C1" d="M86.8,88.3c0-1.9,1.1-2.3,3.1-2.3h7.5v1.4h-8.3c-0.4,0-0.8,0.3-0.8,0.7v4.2c0,0.4,0.3,0.7,0.8,0.7h8.4v1.4h-7.6c-1.9,0-3.1-0.4-3.1-2.3V88.3z"></path><path fill="#C1C1C1" d="M101.7,86v7h7.8v1.4h-9.2V86H101.7z"></path><path fill="#C1C1C1" d="M122.9,93v1.4h-10.7V86h10.6v1.4h-9.1v2h8.2v1.4h-8.2V93H122.9z"></path><path fill="#C1C1C1" d="M125.2,93h9.4c0.5,0,0.8-0.2,0.8-0.7v-0.7c0-0.5-0.2-0.7-0.8-0.7h-7.6c-1.4,0-1.9-0.6-1.9-2v-0.8c0-1.5,0.6-2.1,2.1-2.1h8.9v1.4h-8.9c-0.5,0-0.8,0.2-0.8,0.7v0.7c0,0.5,0.2,0.7,0.8,0.7h6.9c1.9,0,2.6,0.6,2.6,2.1v0.7c0,1.4-0.6,2-2.2,2h-9.2V93z"></path></g></g><g><path fill="#FFFFFF" d="M66.5,80c-2.9,0-4.3-0.5-4.3-3.3v-5.2c0-2.6,1.3-3.4,3.9-3.4h11.3V70H65.3c-0.5,0-1.1,0.5-1.1,1v6c0,0.5,0.5,1.1,1.1,1.1h10.8v-3.2h-6.3V73h8.3V80H66.5z"></path><path fill="#FFFFFF" d="M12.1,68.1H0V80h2.1v-3.7h10c2.4,0,3.8-0.9,3.8-3.4v-1.3C15.9,69.2,14.5,68.1,12.1,68.1z M13.8,73.5c0,0.5-0.5,1-1.1,1H2.1V70h10.6c0.5,0,1.1,0.5,1.1,1V73.5z"></path><polygon fill="#FFFFFF" points="35.7,70 35.7,68.1 20.6,68.1 20.6,80 35.7,80 35.7,78.1 22.6,78.1 22.6,74.9 34.3,74.9 34.3,73 22.6,73 22.6,70 "></polygon><polygon fill="#FFFFFF" points="98.4,70 98.4,68.1 83.3,68.1 83.3,80 98.4,80 98.4,78.1 85.3,78.1 85.3,74.9 97,74.9 97,73 85.3,73 85.3,70 "></polygon><path fill="#FFFFFF" d="M45.2,80c-2.7,0-4.3-0.6-4.3-3.3v-8.6h2.1v9c0,0.5,0.5,1,1.1,1h9.9c0.6,0,1-0.5,1-1v-9H57v8.6c0,2.7-1.4,3.3-4.3,3.3H45.2z"></path><path fill="#FFFFFF" d="M106.7,70c-0.6,0-1.1,0.5-1.1,1.1V77c0,0.5,0.5,1.1,1.1,1.1h10.2c0.5,0,1.1-0.5,1.1-1.1v-5.9c0-0.6-0.5-1.1-1.1-1.1H106.7z M107.9,80c-2.9,0-4.3-0.5-4.3-3.3v-5.3c0-2.7,1.3-3.3,4.3-3.3h7.9c2.6,0,4.3,0.6,4.3,3.3v5.3c0,2.7-1.5,3.3-4.3,3.3H107.9z"></path><polygon fill="#FFFFFF" points="139.8,68.1 123.9,68.1 123.9,70 130.8,70 130.8,80 132.9,80 132.9,70 139.8,70 "></polygon></g><g><g><g><path fill="#FFFFFF" d="M57.8,35.2c-0.2,0-0.3-0.1-0.3-0.2c-0.1-0.3-0.2-1.4-0.3-1.7c0-0.2,0-0.3,0.2-0.3c0.7-0.2,2-0.7,3-1c0.3-0.1,0.3-0.2,0.5-0.4c0.4-0.7,1.5-2.5,2-3.5c0.1-0.1,0.1-0.3,0-0.4l-0.2-0.4c-0.1-0.1-0.3-0.3-0.4-0.3c-1-0.3-2.4-0.6-3-0.8c-0.1,0-0.3,0-0.4,0l-0.1,0c1,0.3,1.8,0.6,2.9,1c0.1,0,0.2,0.1,0.2,0.2l0.1,0.3c0,0.1,0,0.3,0,0.4c-0.5,0.9-1.2,2.1-1.9,2.8c-0.1,0.1-0.2,0.2-0.4,0.3c-0.6,0.2-1.7,0.6-2.2,0.7c-0.1,0-0.1,0-0.2,0c-0.3-0.2-1.1-0.9-1.1-0.9s-0.1,0.7-0.1,1.1c0,0,0,0.1,0,0.1c0.1,0.3,0.3,0.8,0.4,1.1c0,0.1,0,0.1,0.1,0.2c0.1,0.5,0.5,1.9,0.5,1.9c0,0.2,0.2,0.3,0.4,0.2c0.2-0.1,1-0.3,1.3-0.4c0,0,0.1,0,0.1-0.1c0.2-0.2,0.6-0.5,0.6-0.5S58.3,35.1,57.8,35.2z"></path><path fill="#FFFFFF" d="M59.6,30.8c0.4-0.5,0.9-1.3,1.4-2l-3.3,2.7c0.5-0.2,1.3-0.4,1.7-0.6C59.5,30.9,59.5,30.9,59.6,30.8z"></path><path fill="#FFFFFF" d="M59.7,20l-0.6,0c0,0-0.1,0-0.1,0.1l-0.1,0.7c0,0,0,0.1,0.1,0.1l0.6-0.1c0.1,0,0.2-0.1,0.2-0.1c0.1-0.2,0.1-0.4,0-0.5C59.8,20,59.7,20,59.7,20z"></path><path fill="#FFFFFF" d="M54,28.7l0.9,1l0.3-1.8C54.6,28,54.1,28.3,54,28.7z"></path><path fill="#FFFFFF" d="M82.9,28.5c-0.4-0.6-2.2-3.1-4.4-5.4c-0.1-0.1-0.2-0.2-0.3-0.2l-0.4-0.2c0,0,0.7,2.9,0.9,4.4c0,0.2,0.1,0.4,0.3,0.5c1,1,1.7,1.8,2.2,2.6c0.2,0.4,0.4,0.8,0.4,1.2c0.2,2.3,0.1,5.4-0.2,7.2c-0.1,0.4-0.1,0.5-0.4,0.7c-2.2,1.8-5.8,4.9-7.3,6.4c-0.2,0.2-0.2,0.2-0.3,0.4c-0.2,0.3-0.4,0.8-0.4,0.8s-0.4-1.1-0.4-1.7c0-0.3,0-0.4,0-0.7c0.2-1.3,1.1-4.4,1.3-4.8c0,0,0-0.1,0-0.1l0-0.3c-0.3,0.7-2,4.5-2.4,5.9c-0.1,0.3-0.1,0.4,0,0.6c0.2,0.6,0.9,2.2,1.2,2.9c0,0,0.7-1.3,1.1-2c0.1-0.2,0.3-0.4,0.4-0.5c1.2-1.1,5.6-4.8,7.6-6.3c0.3-0.2,0.4-0.4,0.4-0.6c0.8-3.2,1.2-6.8,0.8-10.2C83,28.7,83,28.6,82.9,28.5z"></path><path fill="#FFFFFF" d="M73.9,19.2c0.1-0.1,0.1-0.3,0.1-0.5c-0.1-0.4-0.2-0.9-0.3-1.2c0-0.1-0.1-0.1-0.1-0.2L73,17.1c-0.1,0-0.2-0.1-0.3,0c-1.5,0.3-3.1,0.6-4.2,0.8c-0.1,0-0.2,0.1-0.2,0.2l-0.4,0.6c0,0,0,0.1,0.1,0.1c0.3,0.1,0.9,0.2,1.2,0.2c0.1,0,0.2,0,0.3,0c0.8-0.3,2-0.8,2.9-1.1c0.1,0,0.2,0,0.2,0L73,18c0.1,0,0.1,0.1,0.1,0.1c0.1,0.2,0.2,0.4,0.3,0.6c0.1,0.1,0,0.2-0.1,0.4c-0.3,0.4-0.8,1.2-1.2,1.6c-0.1,0.1-0.1,0.2-0.1,0.3c0.2,0.7,0.7,2.3,0.9,3c0,0.1,0.1,0.2,0.1,0.2l0.3,0.3c0,0-0.6-2.6-0.7-3.3c0-0.1,0-0.2,0.1-0.3C73.2,20.5,73.7,19.7,73.9,19.2z"></path><path fill="#FFFFFF" d="M87.2,21.3c0-0.2-0.1-0.3-0.3-0.4c-1.7-1.2-4.7-3-6.4-3.8c-0.2-0.1-0.5-0.1-0.7,0c-0.9,0.3-2.2,0.9-3.6,1.5c0,0,0.6,0,0.9,0.1c0.2,0,0.2,0,0.4,0c0.4-0.1,1.2-0.3,1.8-0.4c0.3-0.1,0.6,0,0.8,0.2c0.8,0.6,2.2,1.7,3,2.4c0.1,0.1,0.3,0.2,0.5,0.3c1.3,0.5,1.9,0.8,2.2,0.9c0.2,0.1,0.4,0.3,0.4,0.5c0.3,1.3,0.6,3.3,0.7,4.8c0,0.3,0,0.5-0.1,0.8c-0.4,1-1.3,2.8-1.8,3.6c0,0.1-0.1,0.1-0.2,0.2c-0.2,0.2-0.5,0.4-0.7,0.6c0,0-0.1,0.1-0.1,0.1c0,0.6-0.1,1.6-0.1,1.6c1.3-1.6,2.4-3.6,3.5-5.8c0.1-0.2,0.1-0.3,0.1-0.4C87.8,25.9,87.6,23.1,87.2,21.3z"></path><path fill="#FFFFFF" d="M70.6,49.4c-0.3-0.7-1.8-4.3-2.2-5.7c-0.1-0.5-0.2-0.6-0.1-1.2c0.3-3.4,1.6-8.8,1.8-9.6c0-0.2,0-0.2,0-0.4c0-0.3-0.2-1.3-0.2-1.3c-0.6,1.3-2.5,6.6-3.3,9.7c-0.1,0.6-0.1,0.7,0,1.1c1,2.7,3.7,7.6,4.2,8.4l-0.1-0.9C70.7,49.5,70.7,49.4,70.6,49.4z"></path><path fill="#FFFFFF" d="M68.3,49.6c0,0-0.6-0.4-0.8-0.5c-0.2-0.1-0.2-0.2-0.3-0.3c-1.2-1.1-5.5-6.3-6.7-8.6c-0.2-0.4-0.3-0.6-0.3-0.9c0-0.4,0.1-1.3,0.2-1.8c0.1-0.3,0.1-0.5,0.4-0.8c0.7-0.7,1.9-1.8,2.5-2.5c0.3-0.3,0.4-0.4,0.5-0.7c0.6-1,2.3-4.8,2.8-6.3c0.1-0.3,0.1-0.3,0.1-0.6c-0.1-0.8-0.7-2.9-0.7-2.9l-0.1,0.7c0,0,0,0.1,0,0.1c0.1,0.3,0.2,1.5,0.2,2.1c0,0.2,0,0.3-0.1,0.5c-0.9,1.7-4.2,6.2-6.3,8.6c-0.2,0.3-0.3,0.5-0.4,0.8c-0.1,0.5-0.2,1.7-0.3,2.6c0,0.5,0,0.7,0.3,1.2c1.3,2.1,5.6,7.2,7,8.4c0.1,0.1,0.2,0.1,0.3,0.2c0.5,0.3,1.9,0.9,1.9,0.9L68.3,49.6C68.3,49.6,68.3,49.6,68.3,49.6z"></path><path fill="#FFFFFF" d="M61.9,19.3l2.7-0.8c0.2,0,0.3-0.2,0.4-0.3l1.4-2.5c0-0.1,0-0.1-0.1-0.1l-1.2,0c-0.1,0-0.2,0-0.3,0.1c-1.1,0.4-2.6,1-3.5,1.5c-0.1,0.1-0.2,0.1-0.3,0.2l-1.3,1.6c0,0.1-0.1,0.1-0.2,0.1l-0.8,0.4c0,0-0.1,0-0.1,0.1l0,0.1c0,0,1.8-0.1,2.4-0.1C61.4,19.4,61.6,19.4,61.9,19.3z"></path><path fill="#FFFFFF" d="M66.9,13.4c3.4-0.3,7.3-0.2,8.3-0.2c0.1,0,0.3,0,0.4,0.1l0.7,0.2c-1.7,0.1-5.8,0.5-7.5,0.7l0.6,0.1c0,0,0.1,0,0.1,0c1.2-0.1,3.7-0.2,4.7-0.2c0.3,0,0.4,0,0.7,0.1c0.6,0.2,1.9,0.8,2.4,1.1c0.3,0.1,0.5,0.2,0.7,0.2c0.6,0,1.4,0.1,2,0.1c0.2,0,0.3,0.1,0.5,0.1c1.3,0.6,2.8,1.6,3.9,2.3c0.1,0,0.1,0.1,0.2,0.1l0.5,0.1c0,0-1.7-1.7-2.3-2.3c-0.1-0.1-0.2-0.2-0.3-0.2c-2.5-1.4-4.7-2.6-6-3.1c-0.2-0.1-0.4-0.1-0.6-0.2c-3.9-0.3-7.9-0.2-10.9,0c-0.2,0-0.4,0.1-0.5,0.3c-0.1,0.2-0.3,0.5-0.5,0.8c-0.1,0.1-0.2,0.3-0.3,0.4c-0.5,0.5-1.4,1.2-2,1.7c0,0-0.1,0.1-0.1,0.1c-0.2,0.2-1,0.7-1.2,0.8c-0.1,0-0.1,0-0.1,0.1c0,0.1-0.3,0.4-0.3,0.4c2.4-1.3,5.4-3,6.4-3.5C66.6,13.5,66.7,13.4,66.9,13.4z"></path><path fill="#FFFFFF" d="M55.8,21c0,0-0.1,0.1-0.1,0.1c-2.1,1.5-3.3,2.5-3.8,2.9c-0.2,0.2-0.4,0.4-0.5,0.5c-0.1,0.2-0.2,0.2-0.2,0.3c0,0.1,0,0.2,0,0.3c0,0,0,0.1,0,0.1c0,0,0.2,0.2,0.2,0.3c0,0,0,0,0.1,0c0.3-0.2,0.8-0.5,1.1-0.8c0,0,0.1-0.1,0.1-0.1c0.1-0.1,0.2-0.3,0.2-0.4c0-0.1,0.1-0.1,0.1-0.1c0.1-0.1,0.3-0.2,0.3-0.2s-0.2,0.7-0.3,1c0,0.1-0.1,0.1-0.1,0.2c-0.3,0.3-0.9,1-1.2,1.3c-0.1,0.1-0.1,0.3,0,0.4c0.3,0.4,0.8,1,1.1,1.4c0.1,0.1,0.1,0.2,0.2,0.2c0.1,0.1,0.2,0.1,0.2,0.1s0.3-1.3,0.4-1.7c0-0.1,0.1-0.2,0.3-0.3c1.4-0.3,4.4-0.8,4.4-0.8c-0.3-0.4-1.4-1.5-1.7-1.7c-0.1-0.1-0.2-0.1-0.3-0.1c-0.4,0-1.7-0.1-1.7-0.1s0.1-0.1,0.2-0.2c0.1-0.1,0.1-0.1,0.2-0.1c1.6-0.5,3.6-1.3,4.8-1.8c0.3-0.1,0.4-0.2,0.6-0.4c0.1-0.1,0.3-0.3,0.4-0.4c0,0,0,0,0-0.1c0,0,0-0.1,0-0.1s-0.5,0.4-0.7,0.5c-0.2,0.1-0.3,0.2-0.5,0.2c-0.4,0.1-1.2,0.3-1.7,0.4c-0.1,0-0.2,0-0.3,0c-0.1,0-0.2-0.1-0.3-0.1c-0.1,0-0.1-0.1-0.2,0c-0.4,0.1-1.6,0.4-1.6,0.4s0.5-0.5,0.6-0.5c0.1,0,0.1-0.1,0.2-0.1c0.4-0.2,0.9-0.3,1.3-0.5c0.1,0,0.1-0.1,0.1-0.2c0-0.3,0.1-0.9,0.2-1.2c0-0.1,0-0.1,0.1-0.2c0.2-0.2,1.1-0.9,1.4-1c0,0,0,0,0,0l0.2-0.3c-0.6,0.4-1.8,1-2.4,1.4c-0.3,0.2-0.4,0.2-0.6,0.4c0,0-0.1,0-0.1,0.1C56.7,19.8,56,20.7,55.8,21z"></path></g><path fill="#FFFFFF" d="M96,2.2C87.1,0.7,78.3,0,69.9,0c-8.4,0-17.2,0.7-26,2.2c-0.1,3.6-0.3,9,0,13.7c0.6,10.4,2.9,18.5,7.2,25.4c4.3,6.9,11.1,12.8,18.9,16.4c7.8-3.5,14.5-9.5,18.9-16.4c4.4-6.9,6.6-15,7.2-25.4C96.2,11.3,96.1,5.8,96,2.2z M95,15.9c-0.6,10.2-2.8,18.1-7.1,24.9c-4.3,6.8-10.6,12.4-18,15.8c-7.4-3.4-13.8-9-18-15.8c-4.3-6.8-6.5-14.7-7.1-24.9c-0.2-3.3-0.2-7.5,0-12.8C53.2,1.7,61.6,1,69.9,1S86.7,1.7,95,3.1C95.2,8.4,95.2,12.6,95,15.9z"></path><g><path fill="#FFFFFF" d="M68.9,8.5c-0.9,0-1.3-0.1-1.3-1c0-0.5,0-1.1,0-1.6c0-0.8,0.4-1.1,1.2-1.1c1.2,0,2.3,0,3.5,0c0,0.2,0,0.4,0,0.6c-1.2,0-2.5,0-3.7,0c-0.2,0-0.3,0.1-0.3,0.3c0,0.6,0,1.2,0,1.8c0,0.2,0.2,0.3,0.3,0.3c1.1,0,2.2,0,3.3,0c0-0.3,0-0.7,0-1c-0.6,0-1.3,0-1.9,0c0-0.2,0-0.4,0-0.6c0.9,0,1.7,0,2.6,0c0,0.7,0,1.4,0,2.2C71.3,8.5,70.1,8.5,68.9,8.5z"></path><path fill="#FFFFFF" d="M52.2,5.8c-1.2,0.1-2.5,0.3-3.7,0.4c0,1.2,0,2.4,0,3.6c0.2,0,0.4-0.1,0.6-0.1c0-0.4,0-0.8,0-1.1c1-0.1,2-0.2,3.1-0.3c0.7-0.1,1.1-0.4,1.1-1.1c0-0.1,0-0.3,0-0.4C53.4,6,53,5.7,52.2,5.8z M52.8,7.4c0,0.2-0.2,0.3-0.3,0.3c-1.1,0.1-2.2,0.2-3.2,0.4c0-0.4,0-0.9,0-1.3c1.1-0.1,2.2-0.3,3.2-0.4c0.2,0,0.3,0.1,0.3,0.3C52.8,6.9,52.8,7.1,52.8,7.4z"></path><path fill="#FFFFFF" d="M59.5,5.8c0-0.2,0-0.4,0-0.6c-1.5,0.1-3.1,0.2-4.6,0.3c0,1.2,0,2.4,0,3.6c1.5-0.1,3.1-0.3,4.6-0.3c0-0.2,0-0.4,0-0.6c-1.3,0.1-2.7,0.2-4,0.3c0-0.3,0-0.7,0-1c1.2-0.1,2.4-0.2,3.6-0.3c0-0.2,0-0.4,0-0.6c-1.2,0.1-2.4,0.2-3.6,0.3c0-0.3,0-0.6,0-0.9C56.8,6,58.1,5.9,59.5,5.8z"></path><path fill="#FFFFFF" d="M78.7,5.7c0-0.2,0-0.4,0-0.6C77.1,5,75.6,4.9,74,4.9c0,1.2,0,2.4,0,3.6c1.5,0,3.1,0.1,4.6,0.2c0-0.2,0-0.4,0-0.6C77.3,8.1,76,8,74.6,8c0-0.3,0-0.7,0-1c1.2,0,2.4,0.1,3.6,0.1c0-0.2,0-0.4,0-0.6c-1.2-0.1-2.4-0.1-3.6-0.1c0-0.3,0-0.6,0-0.9C76,5.6,77.3,5.6,78.7,5.7z"></path><path fill="#FFFFFF" d="M62.3,8.7c-0.8,0-1.3-0.1-1.3-0.9c0-0.9,0-1.8,0-2.6c0.2,0,0.4,0,0.6,0c0,0.9,0,1.8,0,2.7c0,0.2,0.1,0.3,0.3,0.3c1,0,2-0.1,3-0.1c0.2,0,0.3-0.2,0.3-0.3c0-0.9,0-1.8,0-2.7c0.2,0,0.4,0,0.6,0c0,0.9,0,1.8,0,2.6c0,0.8-0.4,1-1.3,1C63.9,8.6,63.1,8.6,62.3,8.7z"></path><path fill="#FFFFFF" d="M81.2,5.8c-0.2,0-0.3,0.1-0.3,0.3c0,0.6,0,1.2,0,1.8c0,0.2,0.1,0.3,0.3,0.4c1,0.1,2.1,0.1,3.1,0.2c0.2,0,0.3-0.1,0.3-0.3c0-0.6,0-1.2,0-1.8c0-0.2-0.2-0.3-0.3-0.4C83.3,6,82.2,5.9,81.2,5.8z M81.5,8.9c-0.9-0.1-1.3-0.2-1.3-1.1c0-0.5,0-1.1,0-1.6c0-0.8,0.4-1,1.3-0.9c0.8,0.1,1.6,0.1,2.4,0.2c0.8,0.1,1.3,0.3,1.3,1.1c0,0.5,0,1.1,0,1.6c0,0.8-0.5,1-1.3,0.9C83.2,9,82.4,9,81.5,8.9z"></path><path fill="#FFFFFF" d="M91.3,6.2c-1.6-0.2-3.2-0.4-4.9-0.5c0,0.2,0,0.4,0,0.6c0.7,0.1,1.4,0.1,2.1,0.2c0,1,0,2,0,3.1c0.2,0,0.4,0,0.6,0.1c0-1,0-2,0-3.1c0.7,0.1,1.4,0.2,2.1,0.3C91.3,6.6,91.3,6.4,91.3,6.2z"></path></g></g></g></g></svg>