<?xml version="1.0" encoding="utf-8"?>
<!-- Generator: Adobe Illustrator 24.2.0, SVG Export Plug-In . SVG Version: 6.00 Build 0)  -->
<svg version="1.1" id="Layer_1" xmlns="http://www.w3.org/2000/svg" xmlns:xlink="http://www.w3.org/1999/xlink" x="0px" y="0px"
	 viewBox="0 0 24 24" style="enable-background:new 0 0 24 24;" xml:space="preserve">
<style type="text/css">
	.st0{fill:#FFFFFF;}
</style>
<path class="st0" d="M12,0C5.4,0,0,5.4,0,12s5.4,12,12,12s12-5.4,12-12S18.6,0,12,0z M16.4,16.9c-2.1,0.1-6.8,0.1-8.9,0
	C5.3,16.7,5,15.6,5,12c0-3.6,0.3-4.7,2.6-4.9c2.1-0.1,6.8-0.1,8.9,0C18.7,7.3,19,8.4,19,12C19,15.6,18.7,16.7,16.4,16.9z M10,9.7
	l4.9,2.3L10,14.3V9.7z"/>
</svg>
