<?xml version="1.0" standalone="no"?>
<!DOCTYPE svg PUBLIC "-//W3C//DTD SVG 20010904//EN"
 "http://www.w3.org/TR/2001/REC-SVG-20010904/DTD/svg10.dtd">
<svg version="1.0" xmlns="http://www.w3.org/2000/svg"
 width="700.000000pt" height="700.000000pt" viewBox="0 0 700.000000 700.000000"
 preserveAspectRatio="xMidYMid meet">
<metadata>
Created by potrace 1.14, written by Peter Selinger 2001-2017
</metadata>
<g transform="translate(0.000000,700.000000) scale(0.100000,-0.100000)"
fill="#000000" stroke="none">
<path d="M5379 6996 c-2 -2 -33 -7 -67 -10 -395 -38 -830 -255 -1117 -555 -95
-99 -235 -275 -235 -296 0 -3 -11 -21 -24 -38 -32 -44 -129 -245 -161 -337
-29 -83 -71 -243 -80 -305 -3 -22 -8 -45 -10 -52 -13 -38 -18 -308 -19 -963
-1 -404 0 -744 2 -755 3 -20 11 -20 570 -19 519 1 606 3 742 20 185 23 427
100 600 192 67 36 253 154 275 175 7 7 32 28 56 47 69 55 200 188 261 265 231
291 371 640 405 1015 3 36 6 414 6 840 l1 775 -601 2 c-330 1 -602 0 -604 -1z
m971 -920 c-2 -729 0 -686 -45 -928 -25 -135 -156 -420 -257 -560 -75 -103
-196 -235 -274 -298 -31 -25 -61 -50 -68 -57 -7 -6 -51 -36 -97 -66 -154 -100
-309 -169 -481 -213 -183 -47 -259 -52 -761 -53 l-468 -1 4 712 c2 392 6 724
10 738 3 14 11 54 17 90 10 62 58 232 83 295 46 115 168 326 232 399 14 16 25
32 25 35 0 11 148 159 217 217 243 206 569 343 888 372 44 4 282 7 528 8 l448
1 -1 -691z"/>
<path d="M8 6579 c-11 -7 -5 -1231 6 -1289 4 -19 13 -71 22 -115 120 -627 574
-1164 1174 -1388 154 -57 332 -98 495 -113 89 -9 1598 -11 1615 -3 13 6 15 80
14 586 -2 626 -6 696 -54 898 -45 190 -102 328 -224 540 -91 159 -289 378
-454 503 -235 179 -562 322 -817 358 -27 3 -59 8 -70 10 -10 2 -51 7 -90 10
-88 9 -1603 11 -1617 3z m1682 -244 c41 -7 89 -16 105 -19 17 -3 42 -8 56 -11
139 -26 418 -155 568 -262 118 -85 268 -232 349 -343 35 -47 69 -94 78 -105
29 -38 143 -280 168 -355 37 -115 47 -155 66 -280 16 -98 18 -185 19 -588 l2
-473 -683 1 c-720 2 -755 3 -948 50 -277 68 -560 228 -759 430 -256 260 -418
590 -467 955 -4 28 -8 267 -9 533 l-2 483 691 -2 c527 0 709 -4 766 -14z"/>
<path d="M2237 3334 c-1 -1 -45 -4 -97 -7 -253 -16 -549 -108 -795 -247 -38
-21 -184 -119 -195 -130 -3 -3 -27 -23 -55 -45 -237 -189 -454 -496 -563 -795
-37 -101 -79 -256 -88 -325 -3 -27 -8 -53 -9 -56 -2 -3 -7 -48 -11 -100 -7
-99 -12 -1581 -5 -1612 4 -18 29 -18 635 -14 347 2 640 6 651 9 19 5 41 9 125
23 19 3 66 15 105 25 380 102 685 293 956 600 185 210 349 548 405 834 16 82
25 141 30 206 8 88 11 1590 4 1617 -5 17 -33 18 -548 18 -299 0 -544 -1 -545
-1z m862 -916 c-1 -705 -4 -771 -45 -932 -104 -415 -345 -756 -696 -987 -155
-102 -360 -189 -528 -224 -170 -36 -209 -38 -693 -40 l-488 -2 2 686 c1 609 3
698 19 796 20 126 30 166 71 287 173 508 619 918 1139 1047 176 43 244 48 743
50 l478 2 -2 -683z"/>
<path d="M3677 3328 c-8 -5 -11 -168 -10 -565 0 -658 3 -704 48 -898 48 -202
136 -421 217 -537 10 -14 18 -29 18 -32 0 -3 23 -39 51 -78 185 -261 423 -466
704 -606 151 -75 367 -146 510 -168 28 -4 57 -9 65 -10 65 -13 277 -17 948
-18 l774 -1 -5 640 c-3 386 -9 658 -15 685 -6 25 -12 59 -15 75 -67 403 -315
819 -657 1099 -236 194 -588 354 -860 392 -19 2 -45 7 -57 9 -12 3 -55 8 -95
11 -101 9 -1607 11 -1621 2z m1673 -241 c14 -3 43 -8 65 -12 78 -11 246 -59
325 -92 387 -162 673 -427 855 -793 49 -97 107 -250 119 -310 2 -14 12 -59 21
-100 26 -124 29 -186 30 -665 l0 -460 -700 0 c-385 0 -720 4 -745 8 -209 36
-332 73 -480 143 -447 212 -768 603 -894 1090 -9 34 -18 79 -21 100 -3 22 -8
50 -12 64 -3 14 -8 254 -10 533 l-5 508 714 -4 c392 -2 724 -6 738 -10z"/>
</g>
</svg>
